HIERARCHY
ROOT Hips
{
    OFFSET 0.000000 0.000000 0.000000
    CHANNELS 6 Xposition Yposition Zposition Zrotation Xrotation Yrotation
    JOINT Spine
    {
        OFFSET 0.000001 7.292995 0.000000
        CHANNELS 3 Zrotation Xrotation Yrotation
        JOINT Spine1
        {
            OFFSET -0.000000 20.255388 0.000001
            CHANNELS 3 Zrotation Xrotation Yrotation
            JOINT Neck
            {
                OFFSET 0.000001 20.786594 0.000000
                CHANNELS 3 Zrotation Xrotation Yrotation
                JOINT Head
                {
                    OFFSET 0.000003 12.530788 1.776080
                    CHANNELS 3 Zrotation Xrotation Yrotation
                    End Site
                    {
                        OFFSET 0.000000 17.760757 0.000000
                    }
                }
            }
            JOINT LeftShoulder
            {
                OFFSET 3.550532 15.465697 -0.908801
                CHANNELS 3 Zrotation Xrotation Yrotation
                JOINT LeftArm
                {
                    OFFSET 12.513301 -0.000005 0.000001
                    CHANNELS 3 Zrotation Xrotation Yrotation
                    JOINT LeftForeArm
                    {
                        OFFSET 24.225992 0.000005 0.000000
                        CHANNELS 3 Zrotation Xrotation Yrotation
                        JOINT LeftHand
                        {
                            OFFSET 20.711395 -0.000004 0.000000
                            CHANNELS 3 Zrotation Xrotation Yrotation
                            JOINT LeftHandThumb1
                            {
                                OFFSET 2.121964 -2.411326 3.375861
                                CHANNELS 3 Zrotation Xrotation Yrotation
                                JOINT LeftHandThumb2
                                {
                                    OFFSET 2.803212 -0.000001 -0.000002
                                    CHANNELS 3 Zrotation Xrotation Yrotation
                                    JOINT LeftHandThumb3
                                    {
                                        OFFSET 2.395929 0.000000 0.000000
                                        CHANNELS 3 Zrotation Xrotation Yrotation
                                        End Site
                                        {
                                            OFFSET 2.127676 0.000000 0.000000
                                        }
                                    }
                                }
                            }
                            JOINT LeftHandIndex1
                            {
                                OFFSET 8.680776 0.000004 3.375861
                                CHANNELS 3 Zrotation Xrotation Yrotation
                                JOINT LeftHandIndex2
                                {
                                    OFFSET 4.218180 -0.000002 0.000001
                                    CHANNELS 3 Zrotation Xrotation Yrotation
                                    JOINT LeftHandIndex3
                                    {
                                        OFFSET 2.109090 0.000001 -0.000000
                                        CHANNELS 3 Zrotation Xrotation Yrotation
                                        End Site
                                        {
                                            OFFSET 1.872952 0.000000 0.000000
                                        }
                                    }
                                }
                            }
                            JOINT LeftHandMiddle1
                            {
                                OFFSET 8.680775 0.000001 1.118862
                                CHANNELS 3 Zrotation Xrotation Yrotation
                                JOINT LeftHandMiddle2
                                {
                                    OFFSET 4.640000 0.000002 -0.000000
                                    CHANNELS 3 Zrotation Xrotation Yrotation
                                    JOINT LeftHandMiddle3
                                    {
                                        OFFSET 2.530906 0.000005 0.000000
                                        CHANNELS 3 Zrotation Xrotation Yrotation
                                        End Site
                                        {
                                            OFFSET 2.247544 0.000000 0.000000
                                        }
                                    }
                                }
                            }
                            JOINT LeftHandRing1
                            {
                                OFFSET 8.198514 -0.000004 -1.118859
                                CHANNELS 3 Zrotation Xrotation Yrotation
                                JOINT LeftHandRing2
                                {
                                    OFFSET 4.218182 -0.000003 -0.000001
                                    CHANNELS 3 Zrotation Xrotation Yrotation
                                    JOINT LeftHandRing3
                                    {
                                        OFFSET 2.109086 0.000004 0.000001
                                        CHANNELS 3 Zrotation Xrotation Yrotation
                                        End Site
                                        {
                                            OFFSET 1.872952 0.000000 0.000000
                                        }
                                    }
                                }
                            }
                            JOINT LeftHandPinky1
                            {
                                OFFSET 7.716242 0.000005 -3.375859
                                CHANNELS 3 Zrotation Xrotation Yrotation
                                JOINT LeftHandPinky2
                                {
                                    OFFSET 3.374535 0.000004 0.000002
                                    CHANNELS 3 Zrotation Xrotation Yrotation
                                    JOINT LeftHandPinky3
                                    {
                                        OFFSET 1.687275 0.000002 -0.000001
                                        CHANNELS 3 Zrotation Xrotation Yrotation
                                        End Site
                                        {
                                            OFFSET 1.498360 0.000000 0.000000
                                        }
                                    }
                                }
                            }
                        }
                    }
                }
            }
            JOINT RightShoulder
            {
                OFFSET -3.550531 15.465694 -0.908802
                CHANNELS 3 Zrotation Xrotation Yrotation
                JOINT RightArm
                {
                    OFFSET -12.513298 -0.000004 0.000001
                    CHANNELS 3 Zrotation Xrotation Yrotation
                    JOINT RightForeArm
                    {
                        OFFSET -24.225996 -0.000002 -0.000000
                        CHANNELS 3 Zrotation Xrotation Yrotation
                        JOINT RightHand
                        {
                            OFFSET -20.711401 0.000005 0.000001
                            CHANNELS 3 Zrotation Xrotation Yrotation
                            JOINT RightHandThumb1
                            {
                                OFFSET -2.121970 -2.411334 3.375861
                                CHANNELS 3 Zrotation Xrotation Yrotation
                                JOINT RightHandThumb2
                                {
                                    OFFSET -2.803210 0.000003 -0.000004
                                    CHANNELS 3 Zrotation Xrotation Yrotation
                                    JOINT RightHandThumb3
                                    {
                                        OFFSET -2.395930 -0.000001 0.000002
                                        CHANNELS 3 Zrotation Xrotation Yrotation
                                        End Site
                                        {
                                            OFFSET -2.127676 0.000000 0.000000
                                        }
                                    }
                                }
                            }
                            JOINT RightHandIndex1
                            {
                                OFFSET -8.680779 0.000001 3.375860
                                CHANNELS 3 Zrotation Xrotation Yrotation
                                JOINT RightHandIndex2
                                {
                                    OFFSET -4.218180 0.000000 -0.000000
                                    CHANNELS 3 Zrotation Xrotation Yrotation
                                    JOINT RightHandIndex3
                                    {
                                        OFFSET -2.109090 0.000001 -0.000000
                                        CHANNELS 3 Zrotation Xrotation Yrotation
                                        End Site
                                        {
                                            OFFSET -1.872952 0.000000 0.000000
                                        }
                                    }
                                }
                            }
                            JOINT RightHandMiddle1
                            {
                                OFFSET -8.680780 0.000001 1.118860
                                CHANNELS 3 Zrotation Xrotation Yrotation
                                JOINT RightHandMiddle2
                                {
                                    OFFSET -4.640000 -0.000002 0.000001
                                    CHANNELS 3 Zrotation Xrotation Yrotation
                                    JOINT RightHandMiddle3
                                    {
                                        OFFSET -2.530910 0.000001 -0.000000
                                        CHANNELS 3 Zrotation Xrotation Yrotation
                                        End Site
                                        {
                                            OFFSET -2.247544 0.000000 0.000000
                                        }
                                    }
                                }
                            }
                            JOINT RightHandRing1
                            {
                                OFFSET -8.198519 0.000005 -1.118860
                                CHANNELS 3 Zrotation Xrotation Yrotation
                                JOINT RightHandRing2
                                {
                                    OFFSET -4.218180 -0.000006 0.000000
                                    CHANNELS 3 Zrotation Xrotation Yrotation
                                    JOINT RightHandRing3
                                    {
                                        OFFSET -2.109090 0.000001 -0.000000
                                        CHANNELS 3 Zrotation Xrotation Yrotation
                                        End Site
                                        {
                                            OFFSET -1.872952 0.000000 0.000000
                                        }
                                    }
                                }
                            }
                            JOINT RightHandPinky1
                            {
                                OFFSET -7.716248 -0.000002 -3.375859
                                CHANNELS 3 Zrotation Xrotation Yrotation
                                JOINT RightHandPinky2
                                {
                                    OFFSET -3.374540 0.000000 0.000000
                                    CHANNELS 3 Zrotation Xrotation Yrotation
                                    JOINT RightHandPinky3
                                    {
                                        OFFSET -1.687270 0.000004 0.000001
                                        CHANNELS 3 Zrotation Xrotation Yrotation
                                        End Site
                                        {
                                            OFFSET -1.498360 0.000000 0.000000
                                        }
                                    }
                                }
                            }
                        }
                    }
                }
            }
        }
    }
    JOINT LeftUpLeg
    {
        OFFSET 8.880376 -0.000000 -0.000000
        CHANNELS 3 Zrotation Xrotation Yrotation
        JOINT LeftLeg
        {
            OFFSET -0.000001 -40.387405 -0.000001
            CHANNELS 3 Zrotation Xrotation Yrotation
            JOINT LeftFoot
            {
                OFFSET -0.000001 -36.911297 -0.000001
                CHANNELS 3 Zrotation Xrotation Yrotation
                JOINT LeftToeBase
                {
                    OFFSET -0.000002 -5.772240 13.320604
                    CHANNELS 3 Zrotation Xrotation Yrotation
                    End Site
                    {
                        OFFSET 0.000000 0.000000 3.552151
                    }
                }
            }
        }
    }
    JOINT RightUpLeg
    {
        OFFSET -8.880376 0.000000 0.000000
        CHANNELS 3 Zrotation Xrotation Yrotation
        JOINT RightLeg
        {
            OFFSET -0.000001 -40.387390 0.000000
            CHANNELS 3 Zrotation Xrotation Yrotation
            JOINT RightFoot
            {
                OFFSET 0.000002 -36.911297 -0.000001
                CHANNELS 3 Zrotation Xrotation Yrotation
                JOINT RightToeBase
                {
                    OFFSET 0.000001 -5.772238 13.320600
                    CHANNELS 3 Zrotation Xrotation Yrotation
                    End Site
                    {
                        OFFSET 0.000000 0.000000 3.552151
                    }
                }
            }
        }
    }
}
MOTION
Frames: 4
Frame Time: 0.013889
36.169815    77.779961    41.220840    -6.919178    2.559918    -34.022499    2.839060    -11.271854    14.236205    -6.993716    14.896375    15.296125    -7.551095    -9.362813    -20.026020    7.920635    3.925799    -19.624342    -4.499492    2.444142    -0.697973    -65.008835    0.604534    0.067857    -6.511999    -18.919817    -19.394218    26.736828    1.113592    0.832254    27.257301    37.312252    -41.376957    -18.022846    -2.628871    23.177031    -0.000000    0.000000    -0.000000    1.580660    17.993547    -4.647087    1.503319    0.000000    -0.000002    1.503329    0.000000    -0.000000    2.914504    8.988556    -2.535085    2.878678    -0.000000    -0.000000    2.878685    0.000001    0.000000    3.610697    -8.982432    -1.469053    3.566352    0.000000    0.000001    3.566366    0.000001    -0.000001    4.472097    -17.948675    -2.686372    4.254040    0.000002    0.000001    4.254033    -0.000004    -0.000002    3.116259    2.742124    14.444435    39.505951    30.721764    46.649479    5.790378    -28.430494    12.024176    -36.509327    5.803545    -11.295897    -33.256577    32.800339    44.095367    14.334950    -1.045710    -23.295322    -0.000000    0.000000    -0.000000    -6.022321    17.906975    0.487364    -5.729579    0.000001    -0.000003    -5.729580    -0.000000    -0.000003    -5.800516    8.954671    0.220621    -5.729579    0.000001    0.000005    -5.729580    0.000001    0.000001    -5.800515    -8.954671    3.128459    -5.729578    -0.000002    0.000005    -5.729580    0.000001    -0.000002    -6.022326    -17.906971    6.210794    -5.729570    -0.000005    0.000008    -5.729581    0.000006    -0.000004    4.975875    -36.549900    1.994648    0.000001    16.399952    -0.000005    -5.834622    17.093462    8.064508    -0.000001    5.707582    -0.000006    11.486017    -8.089164    -32.301991    -0.000007    39.109734    0.000008    -6.594443    -22.776640    -11.381255    0.000002    -3.314645    -0.000010    
36.084064    77.568398    41.339077    -6.944247    2.612344    -33.892517    2.841256    -11.259970    14.261028    -6.981715    14.926124    15.318315    -7.652355    -9.336507    -20.062302    7.955362    3.921368    -19.647032    -4.304409    2.641033    -0.792466    -66.085609    2.521356    0.169819    -6.405707    -19.570858    -18.529007    26.050550    1.517630    1.763339    27.272736    37.299576    -41.334282    -17.769018    -2.520280    23.188429    -0.000000    0.000000    -0.000000    1.979609    17.989906    -4.422998    1.882795    0.000000    -0.000000    1.882788    -0.000000    -0.000000    3.204564    8.986160    -2.406739    3.165200    0.000000    0.000001    3.165200    -0.000000    0.000000    3.853707    -8.979985    -1.469571    3.806396    -0.000001    0.000001    3.806403    0.000001    -0.000001    4.675498    -17.943905    -2.700606    4.447605    0.000002    -0.000002    4.447608    0.000001    -0.000001    3.298107    2.913820    14.451400    39.259014    31.834764    46.972744    6.030157    -27.892403    12.724478    -36.234375    6.029550    -11.247454    -33.171814    32.853912    44.175262    14.296734    -1.029243    -23.296009    -0.000000    0.000000    -0.000000    -6.022322    17.906977    0.157249    -5.729579    -0.000000    -0.000002    -5.729579    0.000001    -0.000002    -5.800516    8.954671    0.055565    -5.729582    0.000001    -0.000003    -5.729579    -0.000000    0.000000    -5.800513    -8.954675    3.201552    -5.729581    0.000002    -0.000002    -5.729579    0.000004    -0.000006    -6.022320    -17.906973    6.356982    -5.729578    0.000002    -0.000001    -5.729575    0.000002    0.000001    4.453516    -36.178085    2.160028    -0.000002    14.719648    0.000002    -5.995245    17.001993    8.946192    -0.000001    5.644214    -0.000001    11.367703    -8.296206    -32.461842    0.000001    39.840519    0.000003    -6.586309    -23.305012    -11.419137    -0.000001    -3.448411    -0.000000    
35.963135    77.303276    41.496147    -7.007224    2.681932    -33.650635    2.833469    -11.235108    14.253273    -6.955103    15.011347    15.309200    -7.753020    -9.331309    -20.115482    8.029043    3.925751    -19.690559    -3.985156    3.010209    -0.917252    -67.405403    5.425726    0.267202    -6.247663    -20.128111    -17.647646    24.850317    2.503973    3.094288    27.054968    37.454697    -41.280800    -17.558889    -2.430339    23.197506    -0.000000    0.000000    -0.000000    2.532054    17.983517    -4.116190    2.408296    -0.000000    0.000002    2.408279    0.000000    -0.000000    3.551522    8.983002    -2.222221    3.507895    0.000000    -0.000001    3.507885    -0.000000    -0.000001    4.108112    -8.977258    -1.466538    4.057703    -0.000001    0.000000    4.057710    -0.000000    -0.000001    4.843525    -17.939802    -2.722190    4.607513    0.000001    -0.000000    4.607510    -0.000000    -0.000001    3.497983    3.131697    14.471634    38.883846    33.217888    47.286720    6.410536    -27.168489    13.823707    -35.402390    6.069353    -10.860528    -33.107437    32.889183    44.283165    14.231573    -1.001200    -23.297169    -0.000000    0.000000    -0.000000    -6.022319    17.906973    -0.268716    -5.729577    -0.000000    0.000008    -5.729580    -0.000000    -0.000006    -5.800516    8.954674    -0.157415    -5.729575    -0.000000    0.000005    -5.729578    -0.000000    -0.000001    -5.800512    -8.954673    3.246619    -5.729582    0.000000    -0.000006    -5.729577    -0.000000    0.000007    -6.022320    -17.906975    6.447116    -5.729581    0.000003    -0.000002    -5.729577    -0.000003    0.000001    3.784946    -35.731606    2.287072    0.000001    12.840955    0.000002    -6.245639    16.949228    10.275152    -0.000002    5.598780    -0.000001    11.291076    -8.528304    -32.584347    0.000000    40.705505    -0.000003    -6.641904    -23.917986    -11.584246    0.000000    -3.599407    -0.000006    
35.849510    77.121803    41.609367    -7.089885    2.747868    -33.428421    2.815575    -11.205792    14.201858    -6.906931    15.050805    15.250993    -7.819892    -9.321076    -20.165937    8.085249    3.952912    -19.738646    -3.732919    3.334303    -1.016881    -68.232452    7.749363    0.330050    -6.164916    -20.518873    -17.127230    23.525400    3.144031    3.916337    26.550871    37.808643    -41.073212    -17.581188    -2.439886    23.196560    -0.000000    0.000000    -0.000000    2.824845    17.979490    -3.906291    2.686794    -0.000000    -0.000001    2.686794    0.000001    0.000001    3.718886    8.981359    -2.098207    3.673203    0.000001    -0.000001    3.673218    -0.000000    -0.000000    4.218170    -8.976024    -1.456704    4.166423    0.000000    0.000000    4.166426    0.000000    0.000000    4.898284    -17.938438    -2.720000    4.659645    0.000006    -0.000000    4.659624    -0.000002    0.000002    3.663784    3.244627    14.527102    38.548714    34.189816    47.541908    6.580108    -26.507776    14.491105    -34.772842    6.403025    -10.604879    -33.067165    32.907532    44.382839    14.181606    -0.979681    -23.298023    -0.000000    0.000000    -0.000000    -6.022324    17.906971    -0.583876    -5.729574    0.000001    0.000006    -5.729580    -0.000001    -0.000005    -5.800518    8.954673    -0.314997    -5.729578    0.000000    -0.000005    -5.729579    0.000001    0.000002    -5.800521    -8.954670    3.250305    -5.729576    -0.000002    -0.000002    -5.729579    0.000002    0.000002    -6.022325    -17.906975    6.454497    -5.729578    -0.000000    0.000003    -5.729581    -0.000001    -0.000007    3.328933    -35.435310    2.401884    0.000001    11.716492    0.000003    -6.694030    17.002777    11.550911    -0.000001    5.646692    -0.000000    11.291811    -8.687126    -32.679020    0.000002    41.297905    -0.000006    -6.718748    -24.300381    -11.837920    0.000001    -3.694604    0.000013    
